HIERARCHY
ROOT joint_0
{
	OFFSET 0.000000 0.000000 0.000000
	CHANNELS 6 Xposition Yposition Zposition Zrotation Yrotation Xrotation 
	JOINT joint_1
	{
		OFFSET 0.000000 0.000000 0.000000
		CHANNELS 3 Zrotation Yrotation Xrotation
		JOINT joint_2
		{
			OFFSET 3.811170 -8.520760 0.839290
			CHANNELS 3 Zrotation Yrotation Xrotation
			JOINT joint_3
			{
				OFFSET 2.562200 -7.039590 0.000000
				CHANNELS 3 Zrotation Yrotation Xrotation
				JOINT joint_4
				{
					OFFSET 0.157640 -0.433110 2.322550
					CHANNELS 3 Zrotation Yrotation Xrotation
					End Site
					{
						OFFSET 0.000000 0.000000 0.000000
					}
				}
			}
		}
	}
	JOINT joint_5
	{
		OFFSET 0.000000 0.000000 0.000000
		CHANNELS 3 Zrotation Yrotation Xrotation
		JOINT joint_6
		{
			OFFSET -3.848050 -8.780180 0.839290
			CHANNELS 3 Zrotation Yrotation Xrotation
			JOINT joint_7
			{
				OFFSET -2.568260 -7.056230 0.000000
				CHANNELS 3 Zrotation Yrotation Xrotation
				JOINT joint_8
				{
					OFFSET -0.164730 -0.452590 2.363150
					CHANNELS 3 Zrotation Yrotation Xrotation
					End Site
					{
						OFFSET 0.000000 0.000000 0.000000
					}
				}
			}
		}
	}
	JOINT joint_9
	{
		OFFSET 0.028270 2.035590 -0.193380
		CHANNELS 3 Zrotation Yrotation Xrotation
		JOINT joint_10
		{
			OFFSET 0.056720 2.048850 -0.042750
			CHANNELS 3 Zrotation Yrotation Xrotation
			JOINT joint_11
			{
				OFFSET -0.054170 1.746240 0.172020
				CHANNELS 3 Zrotation Yrotation Xrotation
				JOINT joint_12
				{
					OFFSET 0.104070 1.761360 -0.123970
					CHANNELS 3 Zrotation Yrotation Xrotation
					End Site
					{
						OFFSET 0.000000 0.000000 0.000000
					}
				}
			}
			JOINT joint_13
			{
				OFFSET 3.362410 1.200890 -0.311210
				CHANNELS 3 Zrotation Yrotation Xrotation
				JOINT joint_14
				{
					OFFSET 4.983000 -0.000000 -0.000000
					CHANNELS 3 Zrotation Yrotation Xrotation
					JOINT joint_15
					{
						OFFSET 3.483560 -0.000000 -0.000000
						CHANNELS 3 Zrotation Yrotation Xrotation
						JOINT joint_16
						{
							OFFSET 0.715260 -0.000000 -0.000000
							CHANNELS 3 Zrotation Yrotation Xrotation
							End Site
							{
								OFFSET 0.000000 0.000000 0.000000
							}
						}
					}
				}
			}
			JOINT joint_17
			{
				OFFSET -3.136600 1.374050 -0.404650
				CHANNELS 3 Zrotation Yrotation Xrotation
				JOINT joint_18
				{
					OFFSET -5.241900 -0.000000 -0.000000
					CHANNELS 3 Zrotation Yrotation Xrotation
					JOINT joint_19
					{
						OFFSET -3.444170 -0.000000 -0.000000
						CHANNELS 3 Zrotation Yrotation Xrotation
						JOINT joint_20
						{
							OFFSET -0.622530 -0.000000 -0.000000
							CHANNELS 3 Zrotation Yrotation Xrotation
							End Site
							{
								OFFSET 0.000000 0.000000 0.000000
							}
						}
					}
				}
			}
		}
	}
}
MOTION
Frames: 7
Frame Time: 0.031667
4.847296 15.567984 -2.364512 -5.013435 -25.555210 3.808602 -8.611501 11.547543 -25.458692 -4.747962 11.670926 25.929274 1.105226 6.009360 -10.053479 0.259944 -1.182798 -2.838036 5.357080 -3.434874 -2.523706 6.605839 -11.142663 21.601649 -1.137286 -4.099943 -10.087835 -0.015903 0.119439 -0.240350 1.601517 0.917777 -1.729304 -1.177883 -0.342541 -5.661758 1.844839 0.497350 2.397873 0.268637 0.245162 3.991138 -51.502815 -26.505235 17.097869 45.375934 -53.025021 -19.324404 1.183535 1.528753 1.323681 -6.907312 -0.235956 0.255271 84.684657 24.660611 41.378005 -57.077064 57.714307 -26.000358 -0.004184 -1.584777 2.569390 7.360031 -0.277874 0.272979 
4.817107 15.564921 -2.375835 -4.960369 -25.233309 3.832239 -7.597776 15.454284 -26.520338 -6.233344 11.864180 25.084494 1.433732 5.979283 -11.487617 0.068624 -0.707791 -1.660218 2.366034 -5.927032 1.321849 8.607528 -10.315091 18.449609 -1.404475 -3.335116 -10.240002 0.176280 0.117878 -0.078703 1.266226 1.291470 -2.499117 -1.223203 -0.167076 -5.830780 1.239480 1.009426 1.302261 -0.081487 0.434474 3.595658 -48.237794 -27.842509 13.760569 46.617631 -54.668223 -19.466009 1.139009 1.653831 0.276803 -6.943346 -0.197665 0.214584 88.781863 26.353467 42.234989 -58.448641 59.633929 -25.339002 0.078627 -1.687901 2.044985 7.372648 -0.212015 0.214581 
4.786918 15.561857 -2.387158 -4.907456 -24.911741 3.856510 -7.475374 18.061436 -27.691265 -7.650799 12.496723 24.599218 1.851674 5.718621 -12.121675 -0.010271 -0.396978 -0.746077 0.158021 -7.694876 3.457524 10.362518 -10.293840 16.938815 -1.854224 -3.220946 -9.986867 0.314045 0.131330 -0.019389 0.941060 1.397213 -2.985215 -1.246321 0.008594 -6.231730 0.784424 1.429287 0.723713 -0.242249 0.535947 3.435358 -46.166846 -28.484387 11.575993 47.891361 -56.222663 -19.352272 1.159013 2.367816 -0.894806 -6.911531 -0.239650 0.240363 92.521372 26.269049 41.667724 -57.473095 60.330372 -22.790731 0.010886 -1.984903 0.965242 7.417262 -0.245811 0.242766 
4.756367 15.558990 -2.397638 -4.866138 -24.549143 3.883723 -7.513836 19.476752 -28.458919 -9.001474 12.829074 24.173922 2.310946 5.779586 -12.816496 0.019772 -0.290916 -0.275929 -1.515332 -8.318722 4.874338 12.041913 -10.598024 16.328396 -2.030059 -3.593233 -9.805164 0.480099 0.192960 -0.144593 0.668722 1.147103 -3.288262 -1.305559 -0.055724 -6.564904 0.730442 1.154805 0.437065 -0.217322 0.473580 3.278556 -43.965130 -29.800254 9.517535 50.178147 -58.209537 -19.538837 1.266738 2.757084 -0.929381 -6.849111 -0.297613 0.296489 94.699566 26.323116 42.056598 -59.455262 61.911271 -22.552652 0.182002 -2.181843 0.847936 7.465369 -0.315222 0.306878 
4.725811 15.556126 -2.408110 -4.825040 -24.186731 3.911492 -7.628574 20.244820 -29.081455 -10.289606 13.263566 23.678054 2.664143 5.673286 -12.915097 0.054214 -0.344708 -0.351001 -2.944555 -8.583934 5.726324 13.467003 -10.966105 16.344533 -2.378809 -4.166418 -9.670111 0.568464 0.324819 -0.486556 0.581229 1.005315 -3.307727 -1.316158 -0.225472 -7.193520 0.617381 1.063692 0.454022 -0.149321 0.482049 3.216804 -42.295556 -30.962640 8.045923 52.110657 -59.747768 -19.431670 1.309910 3.135419 -0.943535 -6.805132 -0.342492 0.338688 96.336126 26.253428 42.442916 -61.406722 63.290635 -21.743339 0.172473 -2.413142 0.812481 7.500284 -0.365455 0.354586 
4.695186 15.553324 -2.417671 -4.793570 -23.777342 3.938570 -7.627239 20.890303 -29.759509 -11.591312 13.916593 23.283417 2.933181 5.444440 -12.991004 0.024270 -0.381259 -0.511756 -4.548286 -8.582291 6.187415 14.779058 -11.670715 16.653125 -2.824387 -4.400870 -9.744012 0.614199 0.450949 -0.794424 0.521371 0.868816 -3.431666 -1.514185 -0.296114 -8.010176 0.304940 0.879575 0.388941 -0.211100 0.445775 3.078211 -41.057469 -31.786155 7.250382 54.411518 -61.406515 -19.559760 1.366656 3.648351 -0.970939 -6.783327 -0.372230 0.361158 97.628429 26.268321 42.745247 -63.173654 64.556439 -20.597198 0.140498 -2.538595 0.965538 7.510869 -0.395738 0.382600 
4.664560 15.550523 -2.427211 -4.762252 -23.367880 3.965985 -7.464668 21.612151 -30.009952 -12.969198 14.207757 22.984357 3.153649 5.323166 -13.467212 -0.001073 -0.312600 -0.320815 -5.909422 -8.901838 7.262981 16.156961 -12.093939 17.035503 -3.155703 -4.276127 -10.047582 0.651775 0.515050 -0.966658 0.835445 0.746565 -3.497998 -1.723254 -0.328775 -8.716707 0.017150 0.649410 -0.023314 -0.472650 0.524558 2.653464 -39.923733 -32.505124 6.675157 56.701565 -63.066227 -19.302321 1.544501 4.191581 -0.850632 -6.740216 -0.418317 0.399243 98.913450 26.489496 43.130403 -64.058158 65.419517 -19.150929 0.164104 -2.960879 0.911762 7.540458 -0.446540 0.428237 
